<svg xmlns="http://www.w3.org/2000/svg" xmlns:xlink="http://www.w3.org/1999/xlink" width="300" zoomAndPan="magnify" viewBox="0 0 224.87999 74.999997" height="100" preserveAspectRatio="xMidYMid meet" version="1.0"><defs><g/><clipPath id="1dc0cf49ca"><path d="M 44 2 L 64 2 L 64 30 L 44 30 Z M 44 2 " clip-rule="nonzero"/></clipPath><clipPath id="63553a91a9"><path d="M 17.820312 20.253906 L 45.382812 -7.308594 L 71.886719 19.191406 L 44.324219 46.753906 Z M 17.820312 20.253906 " clip-rule="nonzero"/></clipPath><clipPath id="30ea9d17a2"><path d="M 17.820312 20.253906 L 45.382812 -7.308594 L 71.886719 19.191406 L 44.324219 46.753906 Z M 17.820312 20.253906 " clip-rule="nonzero"/></clipPath><clipPath id="aa631d74f3"><path d="M 17.820312 20.253906 L 45.382812 -7.308594 L 71.886719 19.191406 L 44.324219 46.753906 Z M 17.820312 20.253906 " clip-rule="nonzero"/></clipPath><clipPath id="03bafc7d1c"><path d="M 17 11 L 52 11 L 52 37 L 17 37 Z M 17 11 " clip-rule="nonzero"/></clipPath><clipPath id="a582b43d2c"><path d="M 17.820312 20.253906 L 45.382812 -7.308594 L 71.886719 19.191406 L 44.324219 46.753906 Z M 17.820312 20.253906 " clip-rule="nonzero"/></clipPath><clipPath id="9552054ead"><path d="M 17.820312 20.253906 L 45.382812 -7.308594 L 71.886719 19.191406 L 44.324219 46.753906 Z M 17.820312 20.253906 " clip-rule="nonzero"/></clipPath><clipPath id="40b7943660"><path d="M 17.820312 20.253906 L 45.382812 -7.308594 L 71.886719 19.191406 L 44.324219 46.753906 Z M 17.820312 20.253906 " clip-rule="nonzero"/></clipPath></defs><g clip-path="url(#1dc0cf49ca)"><g clip-path="url(#63553a91a9)"><g clip-path="url(#30ea9d17a2)"><g clip-path="url(#aa631d74f3)"><path fill="#80cc28" d="M 63.105469 18.476562 C 61.800781 9.136719 46.164062 2.910156 46.164062 2.910156 C 46.164062 2.910156 47.976562 11.261719 45.808594 16.269531 C 44.359375 19.613281 42.507812 30.320312 55.273438 29.992188 C 55.410156 29.988281 55.550781 29.984375 55.691406 29.972656 C 57.230469 25.175781 58.757812 14.480469 47.171875 4.121094 C 47.171875 4.121094 61.851562 14.4375 56.449219 29.886719 C 59.882812 29.375 64.269531 26.816406 63.105469 18.476562 " fill-opacity="1" fill-rule="nonzero"/></g></g></g></g><g clip-path="url(#03bafc7d1c)"><g clip-path="url(#a582b43d2c)"><g clip-path="url(#9552054ead)"><g clip-path="url(#40b7943660)"><path fill="#27963c" d="M 43.34375 20.816406 C 37.734375 18.300781 30.007812 17.078125 19.820312 19.984375 C 19.820312 19.984375 32.027344 14.898438 43.554688 19.683594 C 43.746094 18.839844 43.988281 18.109375 44.222656 17.570312 C 44.890625 16.023438 45.179688 14.15625 45.261719 12.3125 C 34.335938 8.253906 17.839844 20.238281 17.839844 20.238281 C 17.839844 20.238281 28.027344 23.960938 31.929688 29.683594 C 34.371094 33.261719 43.496094 41.59375 51.453125 31.230469 C 43.671875 30.535156 42.746094 24.886719 43.34375 20.816406 " fill-opacity="1" fill-rule="nonzero"/></g></g></g></g><g fill="#3c4937" fill-opacity="1"><g transform="translate(44.568073, 50.680514)"><g><path d="M 9.453125 -16.671875 C 12.296875 -16.671875 14.351562 -15.8125 15.625 -14.09375 C 16.894531 -12.382812 17.414062 -9.988281 17.1875 -6.90625 L 4.6875 -6.90625 C 4.976562 -5.613281 5.578125 -4.597656 6.484375 -3.859375 C 7.398438 -3.128906 8.515625 -2.765625 9.828125 -2.765625 C 11.691406 -2.765625 13.242188 -3.40625 14.484375 -4.6875 L 16.390625 -2.671875 C 14.691406 -0.804688 12.410156 0.125 9.546875 0.125 C 6.992188 0.125 4.945312 -0.644531 3.40625 -2.1875 C 1.863281 -3.738281 1.09375 -5.753906 1.09375 -8.234375 C 1.09375 -10.722656 1.867188 -12.742188 3.421875 -14.296875 C 4.972656 -15.859375 6.984375 -16.648438 9.453125 -16.671875 Z M 4.640625 -9.515625 L 14.078125 -9.515625 C 14.023438 -10.835938 13.582031 -11.882812 12.75 -12.65625 C 11.914062 -13.425781 10.828125 -13.8125 9.484375 -13.8125 C 8.179688 -13.8125 7.097656 -13.425781 6.234375 -12.65625 C 5.367188 -11.882812 4.835938 -10.835938 4.640625 -9.515625 Z M 4.640625 -9.515625 "/></g></g></g><g fill="#3c4937" fill-opacity="1"><g transform="translate(59.615497, 50.680514)"><g><path d="M 9.421875 -16.671875 C 12.410156 -16.671875 14.691406 -15.769531 16.265625 -13.96875 L 14.296875 -11.65625 C 13.054688 -12.925781 11.484375 -13.550781 9.578125 -13.53125 C 8.148438 -13.53125 6.972656 -13.035156 6.046875 -12.046875 C 5.128906 -11.066406 4.671875 -9.796875 4.671875 -8.234375 C 4.671875 -6.679688 5.128906 -5.410156 6.046875 -4.421875 C 6.972656 -3.441406 8.148438 -2.953125 9.578125 -2.953125 C 11.691406 -2.953125 13.316406 -3.613281 14.453125 -4.9375 L 16.453125 -2.953125 C 14.890625 -0.898438 12.546875 0.125 9.421875 0.125 C 6.953125 0.125 4.945312 -0.644531 3.40625 -2.1875 C 1.863281 -3.738281 1.09375 -5.753906 1.09375 -8.234375 C 1.09375 -10.742188 1.863281 -12.773438 3.40625 -14.328125 C 4.945312 -15.890625 6.953125 -16.671875 9.421875 -16.671875 Z M 9.421875 -16.671875 "/></g></g></g><g fill="#3c4937" fill-opacity="1"><g transform="translate(73.916751, 50.680514)"><g><path d="M 9.734375 -16.671875 C 12.285156 -16.671875 14.359375 -15.894531 15.953125 -14.34375 C 17.546875 -12.800781 18.34375 -10.773438 18.34375 -8.265625 C 18.34375 -5.785156 17.546875 -3.765625 15.953125 -2.203125 C 14.359375 -0.648438 12.285156 0.125 9.734375 0.125 C 7.160156 0.125 5.078125 -0.648438 3.484375 -2.203125 C 1.890625 -3.765625 1.09375 -5.785156 1.09375 -8.265625 C 1.09375 -10.773438 1.890625 -12.800781 3.484375 -14.34375 C 5.078125 -15.894531 7.160156 -16.671875 9.734375 -16.671875 Z M 9.734375 -13.59375 C 8.242188 -13.59375 7.023438 -13.09375 6.078125 -12.09375 C 5.140625 -11.101562 4.671875 -9.816406 4.671875 -8.234375 C 4.671875 -6.640625 5.140625 -5.34375 6.078125 -4.34375 C 7.023438 -3.351562 8.242188 -2.859375 9.734375 -2.859375 C 11.222656 -2.859375 12.429688 -3.351562 13.359375 -4.34375 C 14.296875 -5.34375 14.765625 -6.640625 14.765625 -8.234375 C 14.765625 -9.816406 14.289062 -11.101562 13.34375 -12.09375 C 12.40625 -13.09375 11.203125 -13.59375 9.734375 -13.59375 Z M 9.734375 -13.59375 "/></g></g></g><g fill="#3c4937" fill-opacity="1"><g transform="translate(90.114521, 50.680514)"><g><path d="M 16.671875 0 L 12.6875 -6.59375 C 12.476562 -6.570312 12.144531 -6.5625 11.6875 -6.5625 L 6.53125 -6.5625 L 6.53125 0 L 2.859375 0 L 2.859375 -21.765625 L 11.6875 -21.765625 C 14.46875 -21.765625 16.625 -21.113281 18.15625 -19.8125 C 19.6875 -18.519531 20.453125 -16.691406 20.453125 -14.328125 C 20.453125 -12.585938 20.0625 -11.113281 19.28125 -9.90625 C 18.507812 -8.707031 17.398438 -7.832031 15.953125 -7.28125 L 20.828125 0 Z M 6.53125 -9.859375 L 11.6875 -9.859375 C 15.21875 -9.859375 16.984375 -11.316406 16.984375 -14.234375 C 16.984375 -17.054688 15.21875 -18.46875 11.6875 -18.46875 L 6.53125 -18.46875 Z M 6.53125 -9.859375 "/></g></g></g><g fill="#3c4937" fill-opacity="1"><g transform="translate(109.359143, 50.680514)"><g><path d="M 9.453125 -16.671875 C 12.296875 -16.671875 14.351562 -15.8125 15.625 -14.09375 C 16.894531 -12.382812 17.414062 -9.988281 17.1875 -6.90625 L 4.6875 -6.90625 C 4.976562 -5.613281 5.578125 -4.597656 6.484375 -3.859375 C 7.398438 -3.128906 8.515625 -2.765625 9.828125 -2.765625 C 11.691406 -2.765625 13.242188 -3.40625 14.484375 -4.6875 L 16.390625 -2.671875 C 14.691406 -0.804688 12.410156 0.125 9.546875 0.125 C 6.992188 0.125 4.945312 -0.644531 3.40625 -2.1875 C 1.863281 -3.738281 1.09375 -5.753906 1.09375 -8.234375 C 1.09375 -10.722656 1.867188 -12.742188 3.421875 -14.296875 C 4.972656 -15.859375 6.984375 -16.648438 9.453125 -16.671875 Z M 4.640625 -9.515625 L 14.078125 -9.515625 C 14.023438 -10.835938 13.582031 -11.882812 12.75 -12.65625 C 11.914062 -13.425781 10.828125 -13.8125 9.484375 -13.8125 C 8.179688 -13.8125 7.097656 -13.425781 6.234375 -12.65625 C 5.367188 -11.882812 4.835938 -10.835938 4.640625 -9.515625 Z M 4.640625 -9.515625 "/></g></g></g><g fill="#3c4937" fill-opacity="1"><g transform="translate(124.406566, 50.680514)"><g><path d="M 9.421875 -16.671875 C 12.410156 -16.671875 14.691406 -15.769531 16.265625 -13.96875 L 14.296875 -11.65625 C 13.054688 -12.925781 11.484375 -13.550781 9.578125 -13.53125 C 8.148438 -13.53125 6.972656 -13.035156 6.046875 -12.046875 C 5.128906 -11.066406 4.671875 -9.796875 4.671875 -8.234375 C 4.671875 -6.679688 5.128906 -5.410156 6.046875 -4.421875 C 6.972656 -3.441406 8.148438 -2.953125 9.578125 -2.953125 C 11.691406 -2.953125 13.316406 -3.613281 14.453125 -4.9375 L 16.453125 -2.953125 C 14.890625 -0.898438 12.546875 0.125 9.421875 0.125 C 6.953125 0.125 4.945312 -0.644531 3.40625 -2.1875 C 1.863281 -3.738281 1.09375 -5.753906 1.09375 -8.234375 C 1.09375 -10.742188 1.863281 -12.773438 3.40625 -14.328125 C 4.945312 -15.890625 6.953125 -16.671875 9.421875 -16.671875 Z M 9.421875 -16.671875 "/></g></g></g><g fill="#3c4937" fill-opacity="1"><g transform="translate(138.707818, 50.680514)"><g><path d="M 16.671875 -16.546875 L 9.140625 2.265625 C 8.128906 4.878906 6.335938 6.1875 3.765625 6.1875 C 2.328125 6.1875 1.050781 5.71875 -0.0625 4.78125 L 1.46875 2.015625 C 2.207031 2.554688 2.921875 2.828125 3.609375 2.828125 C 4.722656 2.828125 5.5625 2.21875 6.125 1 L 6.6875 -0.25 L -0.15625 -16.546875 L 3.546875 -16.546875 L 8.484375 -4.015625 L 13.09375 -16.546875 Z M 16.671875 -16.546875 "/></g></g></g><g fill="#3c4937" fill-opacity="1"><g transform="translate(151.983089, 50.680514)"><g><path d="M 9.421875 -16.671875 C 12.410156 -16.671875 14.691406 -15.769531 16.265625 -13.96875 L 14.296875 -11.65625 C 13.054688 -12.925781 11.484375 -13.550781 9.578125 -13.53125 C 8.148438 -13.53125 6.972656 -13.035156 6.046875 -12.046875 C 5.128906 -11.066406 4.671875 -9.796875 4.671875 -8.234375 C 4.671875 -6.679688 5.128906 -5.410156 6.046875 -4.421875 C 6.972656 -3.441406 8.148438 -2.953125 9.578125 -2.953125 C 11.691406 -2.953125 13.316406 -3.613281 14.453125 -4.9375 L 16.453125 -2.953125 C 14.890625 -0.898438 12.546875 0.125 9.421875 0.125 C 6.953125 0.125 4.945312 -0.644531 3.40625 -2.1875 C 1.863281 -3.738281 1.09375 -5.753906 1.09375 -8.234375 C 1.09375 -10.742188 1.863281 -12.773438 3.40625 -14.328125 C 4.945312 -15.890625 6.953125 -16.671875 9.421875 -16.671875 Z M 9.421875 -16.671875 "/></g></g></g><g fill="#3c4937" fill-opacity="1"><g transform="translate(166.284341, 50.680514)"><g><path d="M 6.375 0 L 2.796875 0 L 2.796875 -23.078125 L 6.375 -23.078125 Z M 6.375 0 "/></g></g></g><g fill="#3c4937" fill-opacity="1"><g transform="translate(172.222291, 50.680514)"><g><path d="M 9.453125 -16.671875 C 12.296875 -16.671875 14.351562 -15.8125 15.625 -14.09375 C 16.894531 -12.382812 17.414062 -9.988281 17.1875 -6.90625 L 4.6875 -6.90625 C 4.976562 -5.613281 5.578125 -4.597656 6.484375 -3.859375 C 7.398438 -3.128906 8.515625 -2.765625 9.828125 -2.765625 C 11.691406 -2.765625 13.242188 -3.40625 14.484375 -4.6875 L 16.390625 -2.671875 C 14.691406 -0.804688 12.410156 0.125 9.546875 0.125 C 6.992188 0.125 4.945312 -0.644531 3.40625 -2.1875 C 1.863281 -3.738281 1.09375 -5.753906 1.09375 -8.234375 C 1.09375 -10.722656 1.867188 -12.742188 3.421875 -14.296875 C 4.972656 -15.859375 6.984375 -16.648438 9.453125 -16.671875 Z M 4.640625 -9.515625 L 14.078125 -9.515625 C 14.023438 -10.835938 13.582031 -11.882812 12.75 -12.65625 C 11.914062 -13.425781 10.828125 -13.8125 9.484375 -13.8125 C 8.179688 -13.8125 7.097656 -13.425781 6.234375 -12.65625 C 5.367188 -11.882812 4.835938 -10.835938 4.640625 -9.515625 Z M 4.640625 -9.515625 "/></g></g></g><g fill="#26973c" fill-opacity="1"><g transform="translate(84.411721, 65.797079)"><g><path d="M 0.546875 -4.203125 L 2.375 -4.203125 C 2.8125 -4.203125 3.15625 -4.109375 3.40625 -3.921875 C 3.65625 -3.734375 3.78125 -3.476562 3.78125 -3.15625 C 3.78125 -2.914062 3.710938 -2.710938 3.578125 -2.546875 C 3.453125 -2.378906 3.273438 -2.269531 3.046875 -2.21875 C 3.328125 -2.164062 3.546875 -2.046875 3.703125 -1.859375 C 3.867188 -1.671875 3.953125 -1.4375 3.953125 -1.15625 C 3.953125 -0.789062 3.8125 -0.503906 3.53125 -0.296875 C 3.257812 -0.0976562 2.890625 0 2.421875 0 L 0.546875 0 Z M 1.265625 -3.5625 L 1.265625 -2.453125 L 2.34375 -2.453125 C 2.5625 -2.453125 2.734375 -2.503906 2.859375 -2.609375 C 2.992188 -2.710938 3.0625 -2.847656 3.0625 -3.015625 C 3.0625 -3.191406 3 -3.328125 2.875 -3.421875 C 2.75 -3.515625 2.570312 -3.5625 2.34375 -3.5625 Z M 1.265625 -1.84375 L 1.265625 -0.625 L 2.34375 -0.625 C 2.625 -0.625 2.835938 -0.675781 2.984375 -0.78125 C 3.140625 -0.894531 3.21875 -1.046875 3.21875 -1.234375 C 3.21875 -1.421875 3.140625 -1.566406 2.984375 -1.671875 C 2.828125 -1.785156 2.613281 -1.84375 2.34375 -1.84375 Z M 1.265625 -1.84375 "/></g></g></g><g fill="#26973c" fill-opacity="1"><g transform="translate(90.343555, 65.797079)"><g><path d="M 3.546875 -3.5625 L 1.265625 -3.5625 L 1.265625 -2.4375 L 3.3125 -2.4375 L 3.3125 -1.796875 L 1.265625 -1.796875 L 1.265625 -0.640625 L 3.625 -0.640625 L 3.625 0 L 0.546875 0 L 0.546875 -4.203125 L 3.546875 -4.203125 Z M 3.546875 -3.5625 "/></g></g></g><g fill="#26973c" fill-opacity="1"><g transform="translate(95.975866, 65.797079)"><g><path d="M 3.421875 -3.5625 L 2.09375 -3.5625 L 2.09375 0 L 1.375 0 L 1.375 -3.5625 L 0.046875 -3.5625 L 0.046875 -4.203125 L 3.421875 -4.203125 Z M 3.421875 -3.5625 "/></g></g></g><g fill="#26973c" fill-opacity="1"><g transform="translate(101.146902, 65.797079)"><g><path d="M 3.421875 -3.5625 L 2.09375 -3.5625 L 2.09375 0 L 1.375 0 L 1.375 -3.5625 L 0.046875 -3.5625 L 0.046875 -4.203125 L 3.421875 -4.203125 Z M 3.421875 -3.5625 "/></g></g></g><g fill="#26973c" fill-opacity="1"><g transform="translate(106.317938, 65.797079)"><g><path d="M 3.546875 -3.5625 L 1.265625 -3.5625 L 1.265625 -2.4375 L 3.3125 -2.4375 L 3.3125 -1.796875 L 1.265625 -1.796875 L 1.265625 -0.640625 L 3.625 -0.640625 L 3.625 0 L 0.546875 0 L 0.546875 -4.203125 L 3.546875 -4.203125 Z M 3.546875 -3.5625 "/></g></g></g><g fill="#26973c" fill-opacity="1"><g transform="translate(111.950248, 65.797079)"><g><path d="M 3.21875 0 L 2.453125 -1.265625 C 2.410156 -1.265625 2.34375 -1.265625 2.25 -1.265625 L 1.265625 -1.265625 L 1.265625 0 L 0.546875 0 L 0.546875 -4.203125 L 2.25 -4.203125 C 2.789062 -4.203125 3.207031 -4.078125 3.5 -3.828125 C 3.800781 -3.578125 3.953125 -3.222656 3.953125 -2.765625 C 3.953125 -2.429688 3.875 -2.144531 3.71875 -1.90625 C 3.570312 -1.675781 3.359375 -1.507812 3.078125 -1.40625 L 4.015625 0 Z M 1.265625 -1.90625 L 2.25 -1.90625 C 2.9375 -1.90625 3.28125 -2.1875 3.28125 -2.75 C 3.28125 -3.289062 2.9375 -3.5625 2.25 -3.5625 L 1.265625 -3.5625 Z M 1.265625 -1.90625 "/></g></g></g><g fill="#26973c" fill-opacity="1"><g transform="translate(117.98392, 65.797079)"><g/></g></g><g fill="#26973c" fill-opacity="1"><g transform="translate(121.231986, 65.797079)"><g><path d="M 1.265625 -0.640625 L 3.078125 -0.640625 L 3.078125 0 L 0.546875 0 L 0.546875 -4.203125 L 1.265625 -4.203125 Z M 1.265625 -0.640625 "/></g></g></g><g fill="#26973c" fill-opacity="1"><g transform="translate(126.133444, 65.797079)"><g><path d="M 1.265625 0 L 0.546875 0 L 0.546875 -4.203125 L 1.265625 -4.203125 Z M 1.265625 0 "/></g></g></g><g fill="#26973c" fill-opacity="1"><g transform="translate(129.645095, 65.797079)"><g><path d="M 3.359375 -3.5625 L 1.265625 -3.5625 L 1.265625 -2.359375 L 3.171875 -2.359375 L 3.171875 -1.71875 L 1.265625 -1.71875 L 1.265625 0 L 0.546875 0 L 0.546875 -4.203125 L 3.375 -4.203125 Z M 3.359375 -3.5625 "/></g></g></g><g fill="#26973c" fill-opacity="1"><g transform="translate(134.792169, 65.797079)"><g><path d="M 3.546875 -3.5625 L 1.265625 -3.5625 L 1.265625 -2.4375 L 3.3125 -2.4375 L 3.3125 -1.796875 L 1.265625 -1.796875 L 1.265625 -0.640625 L 3.625 -0.640625 L 3.625 0 L 0.546875 0 L 0.546875 -4.203125 L 3.546875 -4.203125 Z M 3.546875 -3.5625 "/></g></g></g></svg>