<svg xmlns="http://www.w3.org/2000/svg" xmlns:xlink="http://www.w3.org/1999/xlink" width="500" zoomAndPan="magnify" viewBox="0 0 375 374.999991" height="500" preserveAspectRatio="xMidYMid meet" version="1.0"><defs><g/><clipPath id="733e1ecd52"><path d="M 221 24 L 370 24 L 370 242 L 221 242 Z M 221 24 " clip-rule="nonzero"/></clipPath><clipPath id="0c7131428b"><path d="M 6.34375 163.390625 L 226.433594 -56.699219 L 438.035156 154.902344 L 217.945312 374.992188 Z M 6.34375 163.390625 " clip-rule="nonzero"/></clipPath><clipPath id="3a8b7a4740"><path d="M 6.34375 163.390625 L 226.433594 -56.699219 L 438.035156 154.902344 L 217.945312 374.992188 Z M 6.34375 163.390625 " clip-rule="nonzero"/></clipPath><clipPath id="4d4708860c"><path d="M 6.34375 163.390625 L 226.433594 -56.699219 L 438.035156 154.902344 L 217.945312 374.992188 Z M 6.34375 163.390625 " clip-rule="nonzero"/></clipPath><clipPath id="6ec978c3a5"><path d="M 6 93 L 275 93 L 275 292 L 6 292 Z M 6 93 " clip-rule="nonzero"/></clipPath><clipPath id="64f9911151"><path d="M 6.34375 163.390625 L 226.433594 -56.699219 L 438.035156 154.902344 L 217.945312 374.992188 Z M 6.34375 163.390625 " clip-rule="nonzero"/></clipPath><clipPath id="4adf7aef60"><path d="M 6.34375 163.390625 L 226.433594 -56.699219 L 438.035156 154.902344 L 217.945312 374.992188 Z M 6.34375 163.390625 " clip-rule="nonzero"/></clipPath><clipPath id="81095985a4"><path d="M 6.34375 163.390625 L 226.433594 -56.699219 L 438.035156 154.902344 L 217.945312 374.992188 Z M 6.34375 163.390625 " clip-rule="nonzero"/></clipPath></defs><g clip-path="url(#733e1ecd52)"><g clip-path="url(#0c7131428b)"><g clip-path="url(#3a8b7a4740)"><g clip-path="url(#4d4708860c)"><path fill="#80cc28" d="M 367.929688 149.179688 C 357.511719 74.617188 232.683594 24.910156 232.683594 24.910156 C 232.683594 24.910156 247.136719 91.589844 229.828125 131.566406 C 218.253906 158.273438 203.460938 243.777344 305.390625 241.144531 C 306.476562 241.117188 307.601562 241.0625 308.738281 240.976562 C 321.03125 202.679688 333.21875 117.28125 240.703125 34.585938 C 240.703125 34.585938 357.917969 116.925781 314.789062 240.304688 C 342.1875 236.199219 377.234375 215.777344 367.929688 149.179688 " fill-opacity="1" fill-rule="nonzero"/></g></g></g></g><g clip-path="url(#6ec978c3a5)"><g clip-path="url(#64f9911151)"><g clip-path="url(#4adf7aef60)"><g clip-path="url(#81095985a4)"><path fill="#27963c" d="M 210.132812 167.875 C 165.359375 147.808594 103.65625 138.054688 22.304688 161.25 C 22.304688 161.25 119.777344 120.636719 211.8125 158.847656 C 213.347656 152.105469 215.289062 146.273438 217.15625 141.972656 C 222.507812 129.605469 224.816406 114.699219 225.460938 99.984375 C 138.210938 67.578125 6.492188 163.296875 6.492188 163.296875 C 6.492188 163.296875 87.835938 193.011719 119.003906 238.6875 C 138.484375 267.25 211.332031 333.777344 274.890625 251.042969 C 212.761719 245.488281 205.363281 200.386719 210.132812 167.875 " fill-opacity="1" fill-rule="nonzero"/></g></g></g></g><g fill="#ffffff" fill-opacity="1"><g transform="translate(111.109381, 338.083454)"><g><path d="M 9.734375 -17.15625 C 12.660156 -17.15625 14.78125 -16.273438 16.09375 -14.515625 C 17.40625 -12.753906 17.941406 -10.285156 17.703125 -7.109375 L 4.828125 -7.109375 C 5.128906 -5.785156 5.75 -4.742188 6.6875 -3.984375 C 7.625 -3.222656 8.765625 -2.84375 10.109375 -2.84375 C 12.035156 -2.84375 13.640625 -3.503906 14.921875 -4.828125 L 16.875 -2.75 C 15.125 -0.832031 12.773438 0.125 9.828125 0.125 C 7.203125 0.125 5.09375 -0.664062 3.5 -2.25 C 1.914062 -3.84375 1.125 -5.921875 1.125 -8.484375 C 1.125 -11.046875 1.921875 -13.125 3.515625 -14.71875 C 5.117188 -16.320312 7.191406 -17.132812 9.734375 -17.15625 Z M 4.765625 -9.796875 L 14.5 -9.796875 C 14.4375 -11.160156 13.976562 -12.238281 13.125 -13.03125 C 12.269531 -13.820312 11.148438 -14.21875 9.765625 -14.21875 C 8.421875 -14.21875 7.304688 -13.820312 6.421875 -13.03125 C 5.535156 -12.238281 4.984375 -11.160156 4.765625 -9.796875 Z M 4.765625 -9.796875 "/></g></g></g></svg>